<svg width="237" height="192" viewBox="0 0 237 192" fill="none" xmlns="http://www.w3.org/2000/svg">
<path d="M166.469 129.782C166.973 128.564 166.395 127.167 165.177 126.662C163.959 126.157 162.563 126.736 162.058 127.955C161.554 129.173 162.132 130.57 163.35 131.075C164.568 131.579 165.964 131.001 166.469 129.782Z" fill="#0096FA"/>
<path d="M168.763 37.8564C170.081 37.8564 171.15 36.7873 171.15 35.4684C171.15 34.1495 170.081 33.0804 168.763 33.0804C167.445 33.0804 166.376 34.1495 166.376 35.4684C166.376 36.7873 167.445 37.8564 168.763 37.8564Z" fill="#0096FA"/>
<path d="M189.063 91.8219C190.381 91.8219 191.45 90.7528 191.45 89.4339C191.45 88.115 190.381 87.0459 189.063 87.0459C187.744 87.0459 186.676 88.115 186.676 89.4339C186.676 90.7528 187.744 91.8219 189.063 91.8219Z" fill="#FFCA26"/>
<path d="M154.075 172.854C155.358 172.551 156.153 171.265 155.85 169.981C155.547 168.698 154.262 167.903 152.978 168.206C151.695 168.509 150.901 169.795 151.204 171.078C151.506 172.362 152.792 173.157 154.075 172.854Z" fill="#FFCA26"/>
<path d="M157.606 152.349C158.538 151.417 158.538 149.905 157.606 148.972C156.674 148.04 155.162 148.04 154.23 148.972C153.298 149.905 153.298 151.417 154.23 152.349C155.162 153.282 156.674 153.282 157.606 152.349Z" fill="#FFCA26"/>
<path d="M48.4437 191.706C49.762 191.706 50.8308 190.637 50.8308 189.318C50.8308 187.999 49.762 186.93 48.4437 186.93C47.1254 186.93 46.0566 187.999 46.0566 189.318C46.0566 190.637 47.1254 191.706 48.4437 191.706Z" fill="#FFCA26"/>
<path d="M174.581 108.283C175.575 108.048 176.19 107.052 175.956 106.059C175.721 105.065 174.726 104.449 173.732 104.684C172.739 104.918 172.124 105.914 172.358 106.908C172.593 107.902 173.588 108.517 174.581 108.283Z" fill="#FFCA26"/>
<path d="M30.2895 139.715C30.7597 138.808 30.4064 137.692 29.5005 137.222C28.5945 136.752 27.4789 137.105 27.0086 138.011C26.5384 138.918 26.8917 140.034 27.7976 140.504C28.7036 140.974 29.8193 140.621 30.2895 139.715Z" fill="#FFCA26"/>
<path d="M47.4612 86.5644C49.1312 86.5644 50.4849 85.2101 50.4849 83.5395C50.4849 81.8688 49.1312 80.5145 47.4612 80.5145C45.7913 80.5145 44.4375 81.8688 44.4375 83.5395C44.4375 85.2101 45.7913 86.5644 47.4612 86.5644Z" fill="#FFCA26"/>
<path d="M154.198 4.90214C155.325 4.63599 156.023 3.5061 155.757 2.37845C155.491 1.2508 154.362 0.552422 153.234 0.81857C152.107 1.08472 151.409 2.21461 151.675 3.34226C151.941 4.46991 153.071 5.16829 154.198 4.90214Z" fill="#FFCA26"/>
<path d="M37.4993 90.8571C38.1775 90.8571 38.7272 90.3072 38.7272 89.6288C38.7272 88.9504 38.1775 88.4005 37.4993 88.4005C36.8212 88.4005 36.2715 88.9504 36.2715 89.6288C36.2715 90.3072 36.8212 90.8571 37.4993 90.8571Z" fill="#FFCA26"/>
<path d="M180.53 138.868C181.208 138.868 181.757 138.318 181.757 137.64C181.757 136.961 181.208 136.411 180.53 136.411C179.851 136.411 179.302 136.961 179.302 137.64C179.302 138.318 179.851 138.868 180.53 138.868Z" fill="#FFCA26"/>
<path d="M214.2 133.928C215.518 133.928 216.587 132.859 216.587 131.54C216.587 130.221 215.518 129.152 214.2 129.152C212.881 129.152 211.812 130.221 211.812 131.54C211.812 132.859 212.881 133.928 214.2 133.928Z" fill="#0096FA"/>
<path d="M195.352 155.918C195.856 154.7 195.278 153.303 194.06 152.798C192.842 152.293 191.445 152.872 190.941 154.091C190.436 155.309 191.015 156.706 192.233 157.211C193.451 157.715 194.847 157.137 195.352 155.918Z" fill="#FFCA26"/>
<path d="M235.773 182.756C236.451 182.756 237.001 182.206 237.001 181.528C237.001 180.849 236.451 180.299 235.773 180.299C235.095 180.299 234.545 180.849 234.545 181.528C234.545 182.206 235.095 182.756 235.773 182.756Z" fill="#FFCA26"/>
<path d="M45.9534 61.4884C46.6316 61.4884 47.1813 60.9385 47.1813 60.2601C47.1813 59.5817 46.6316 59.0317 45.9534 59.0317C45.2753 59.0317 44.7256 59.5817 44.7256 60.2601C44.7256 60.9385 45.2753 61.4884 45.9534 61.4884Z" fill="#FFCA26"/>
<path d="M220.03 28.8508C220.745 28.1351 220.745 26.9748 220.03 26.2591C219.314 25.5434 218.154 25.5434 217.439 26.2591C216.723 26.9748 216.724 28.1351 217.439 28.8508C218.154 29.5665 219.314 29.5665 220.03 28.8508Z" fill="#FFCA26"/>
<path d="M151.07 57.1674C152.429 57.1674 153.531 56.0652 153.531 54.7055C153.531 53.3459 152.429 52.2437 151.07 52.2437C149.711 52.2437 148.609 53.3459 148.609 54.7055C148.609 56.0652 149.711 57.1674 151.07 57.1674Z" fill="#FFCA26"/>
<path d="M184.755 118.95C186.074 118.95 187.142 117.881 187.142 116.562C187.142 115.243 186.074 114.174 184.755 114.174C183.437 114.174 182.368 115.243 182.368 116.562C182.368 117.881 183.437 118.95 184.755 118.95Z" fill="#0096FA"/>
<path d="M3.01288 50.6958C4.02026 50.5311 4.70346 49.5806 4.53886 48.5729C4.37426 47.5651 3.42418 46.8816 2.4168 47.0463C1.40942 47.2109 0.726211 48.1614 0.890815 49.1692C1.05542 50.177 2.0055 50.8604 3.01288 50.6958Z" fill="#FFCA26"/>
<path d="M13.4967 14.8144C14.0099 13.5996 13.4415 12.1986 12.2272 11.6852C11.0128 11.1718 9.61238 11.7404 9.09917 12.9552C8.58596 14.17 9.15434 15.5711 10.3687 16.0845C11.583 16.5979 12.9835 16.0293 13.4967 14.8144Z" fill="#0096FA"/>
<path d="M177.26 185.075C178.578 185.075 179.647 184.006 179.647 182.687C179.647 181.369 178.578 180.299 177.26 180.299C175.942 180.299 174.873 181.369 174.873 182.687C174.873 184.006 175.942 185.075 177.26 185.075Z" fill="#0096FA"/>
<path d="M68.2012 19.1722C69.1409 19.0196 69.7791 18.1338 69.6265 17.1937C69.474 16.2536 68.5885 15.6152 67.6488 15.7678C66.7091 15.9204 66.0709 16.8062 66.2235 17.7463C66.376 18.6864 67.2615 19.3248 68.2012 19.1722Z" fill="#0096FA"/>
<path d="M55.2336 122.334C56.1856 122.334 56.9574 121.562 56.9574 120.609C56.9574 119.657 56.1856 118.885 55.2336 118.885C54.2815 118.885 53.5098 119.657 53.5098 120.609C53.5098 121.562 54.2815 122.334 55.2336 122.334Z" fill="#0096FA"/>
<path d="M201.416 69.9321C201.78 69.0522 201.363 68.0434 200.483 67.6789C199.604 67.3145 198.595 67.7323 198.231 68.6122C197.867 69.4921 198.284 70.5009 199.164 70.8654C200.043 71.2298 201.052 70.812 201.416 69.9321Z" fill="#0096FA"/>
<path d="M79.4474 146.087C79.8117 145.207 79.394 144.198 78.5145 143.834C77.6349 143.469 76.6265 143.887 76.2622 144.767C75.8979 145.647 76.3156 146.656 77.1951 147.02C78.0747 147.384 79.083 146.967 79.4474 146.087Z" fill="#0096FA"/>
<path d="M178.524 84.9883L175.944 87.312C175.944 87.312 172.717 85.9523 168.763 86.1506C169.216 85.2364 170.081 83.6707 170.081 83.6707C170.081 83.6707 176.506 82.9291 178.524 84.9892V84.9883Z" fill="#0A92F4"/>
<path d="M135.911 145.151L137.557 148.209C137.557 148.209 135.473 151.024 134.73 154.914C133.949 154.257 132.633 153.046 132.633 153.046C132.633 153.046 133.433 146.625 135.911 145.151Z" fill="#0A92F4"/>
<path d="M58.3678 154.343L55.8666 156.751C55.8666 156.751 52.5958 155.499 48.6514 155.828C49.0735 154.899 49.8861 153.305 49.8861 153.305C49.8861 153.305 56.2828 152.351 58.3686 154.342L58.3678 154.343Z" fill="#0A92F4"/>
<path d="M27.0155 75.4818L24.1445 77.4338C24.1445 77.4338 21.1319 75.6483 17.1875 75.3084C17.7607 74.4638 18.8298 73.0303 18.8298 73.0303C18.8298 73.0303 25.296 73.1676 27.0163 75.4827L27.0155 75.4818Z" fill="#0A92F4"/>
<path d="M49.2993 31.4535L46.1108 30.08C46.1108 30.08 45.9959 26.5787 44.1631 23.0688C45.1833 23.098 46.9663 23.2293 46.9663 23.2293C46.9663 23.2293 50.3264 28.7581 49.2993 31.4535Z" fill="#FECA27"/>
<path d="M180.605 55.1882C181.509 54.3195 182.394 53.7504 183.577 53.6002C186.833 53.1865 190.048 56.1788 189.888 58.1951C189.735 60.1308 191.582 58.9342 191.835 57.947C192.658 54.7255 188.831 51.0517 183.761 51.3238C181.608 51.4396 180.339 51.7701 179.054 53.0577C177.921 54.1925 179.487 56.2637 180.605 55.1873V55.1882Z" fill="#0095FB"/>
<path d="M190.73 59.3857C191.518 59.0346 191.834 57.9479 191.834 57.9479C191.087 57.887 191.045 58.8252 189.257 57.5711C187.395 56.2655 185.462 53.5041 184.866 51.8302C183.848 48.977 184.507 47.5727 185.918 46.6353C187.056 45.8791 189.571 45.298 190.87 45.3675C194.447 45.558 197.79 48.195 198.935 50.0817C200.301 52.3332 201.913 51.5719 201.806 50.4654C201.538 47.7006 198.463 43.7074 192.968 43.0112C190.634 42.7151 186.863 43.5314 185.234 44.6619C183.798 45.6593 182.831 46.9126 182.473 48.2662C182.131 49.5555 182.175 51.353 182.972 53.0071C184.296 55.7522 185.738 57.3891 186.891 58.3943C188.759 60.0252 189.73 59.8295 190.731 59.3848L190.73 59.3857Z" fill="#2C84BF"/>
<path d="M200.63 52.7212C202.656 51.759 202.067 50.371 202.067 50.371C201.839 50.6516 200.08 51.468 196.999 49.0181C195.169 47.5623 193.673 45.3357 193.072 43.5503C192.048 40.5056 192.706 39.3742 194.126 38.3751C195.272 37.5682 197.829 37.5493 199.095 37.9013C203.066 39.006 203.721 42.2327 205.819 43.0052C206.928 43.4129 209.853 42.2241 210.131 41.0756C210.218 40.7167 204.652 34.5579 199.122 33.8145C196.773 33.4986 193.669 34.4695 192.215 35.9193C191.091 37.0403 190.291 38.8275 190.076 40.3039C189.888 41.5889 190.266 43.3597 190.882 44.7589C192.18 47.7057 193.896 49.6843 195.055 50.7572C196.935 52.4963 198.895 53.5461 200.63 52.7212Z" fill="#0095FB"/>
<path d="M20.8542 118.496C20.3454 118.007 19.8469 117.686 19.1802 117.601C17.3457 117.368 15.5344 119.055 15.6245 120.19C15.7111 121.281 14.6703 120.607 14.5279 120.05C14.0637 118.236 16.2208 116.165 19.0764 116.319C20.2896 116.384 21.0052 116.57 21.7286 117.296C22.3669 117.935 21.4849 119.103 20.8542 118.496Z" fill="#0095FB"/>
<path d="M15.1497 120.861C14.7052 120.664 14.5276 120.051 14.5276 120.051C14.9489 120.017 14.972 120.546 15.9794 119.839C17.0288 119.103 18.1176 117.547 18.454 116.605C19.0271 114.997 18.6565 114.206 17.8611 113.678C17.2192 113.252 15.8026 112.924 15.0707 112.963C13.056 113.071 11.1718 114.557 10.5266 115.619C9.7569 116.888 8.84824 116.459 8.90916 115.836C9.06017 114.278 10.7925 112.028 13.8883 111.636C15.2037 111.469 17.3282 111.928 18.2463 112.566C19.0554 113.128 19.5994 113.834 19.8019 114.597C19.9941 115.323 19.9701 116.336 19.5205 117.268C18.7749 118.815 17.9614 119.737 17.3128 120.303C16.26 121.222 15.7134 121.112 15.1497 120.861Z" fill="#2C84BF"/>
<path d="M9.73655 117.106C8.59451 116.564 8.92657 115.782 8.92657 115.782C9.05527 115.94 10.0463 116.4 11.7821 115.019C12.8135 114.199 13.6569 112.945 13.995 111.939C14.5716 110.224 14.2018 109.586 13.4012 109.023C12.7551 108.568 11.3145 108.557 10.6006 108.756C8.36284 109.378 7.99388 111.196 6.81236 111.631C6.18771 111.861 4.53942 111.191 4.3824 110.545C4.33349 110.342 7.46962 106.872 10.586 106.454C11.91 106.276 13.6586 106.823 14.4781 107.639C15.1113 108.271 15.5618 109.278 15.6828 110.109C15.7883 110.833 15.5755 111.831 15.228 112.619C14.4969 114.279 13.5299 115.394 12.877 115.999C11.8173 116.979 10.7139 117.57 9.7357 117.105L9.73655 117.106Z" fill="#0095FB"/>
<path d="M11.9508 177.763C11.771 176.953 11.7636 176.278 12.1161 175.632C13.088 173.856 16.0748 173.535 17.2171 174.462C18.3135 175.353 18.291 173.94 17.7975 173.4C16.1859 171.639 12.5635 171.975 10.829 174.583C10.0921 175.691 9.81425 176.455 10.1006 177.628C10.3533 178.662 12.1733 178.765 11.9511 177.762L11.9508 177.763Z" fill="#FFB01C"/>
<path d="M18.5755 174.453C18.6611 173.918 18.1335 173.307 18.1335 173.307C17.8183 173.648 18.36 174.062 16.9489 174.413C15.4796 174.779 13.1174 174.568 11.9008 174.158C9.82625 173.458 9.23762 172.546 9.20715 171.46C9.18267 170.583 9.77464 169.105 10.3008 168.497C11.7478 166.822 14.5609 166.288 16.1086 166.519C17.9557 166.795 18.1045 165.684 17.407 165.272C15.6649 164.242 12.1462 164.075 9.68351 166.478C8.63752 167.499 7.71609 169.693 7.78052 170.968C7.8376 172.092 8.22139 173.092 8.89209 173.836C9.53026 174.545 10.6151 175.279 11.8943 175.582C14.0187 176.085 15.5293 176.065 16.5554 175.922C18.2203 175.689 18.467 175.131 18.5755 174.453Z" fill="#E59704"/>
<path d="M18.6753 166.852C18.8584 165.459 17.8195 165.167 17.8195 165.167C17.9013 165.395 17.731 166.597 15.1412 167.078C13.602 167.364 11.7322 167.165 10.455 166.712C8.27702 165.94 7.8522 165.146 7.78774 164.034C7.73563 163.137 8.67259 161.878 9.35084 161.407C11.4763 159.928 13.6255 160.957 14.8588 160.254C15.511 159.883 15.8934 157.956 15.3182 157.339C15.1385 157.146 9.43619 157.293 6.9462 159.686C5.88883 160.702 5.31113 162.625 5.62835 163.942C5.87367 164.96 6.63378 166.098 7.42546 166.82C8.11524 167.449 9.30168 168.004 10.3563 168.288C12.5776 168.886 14.3832 168.874 15.4469 168.755C17.1719 168.563 18.5174 168.044 18.6745 166.852L18.6753 166.852Z" fill="#FFB01C"/>
<path d="M225.501 104.967C225.609 104.195 225.571 103.533 225.208 102.851C224.21 100.974 221.491 100.254 220.522 101.01C219.592 101.736 219.516 100.352 219.927 99.8881C221.263 98.3756 224.558 99.1971 226.301 101.995C227.041 103.184 227.343 103.972 227.164 105.087C227.005 106.07 225.368 105.924 225.502 104.968L225.501 104.967Z" fill="#FFB01C"/>
<path d="M219.602 100.957C219.488 100.419 219.925 99.8881 219.925 99.8881C220.234 100.268 219.771 100.601 221.074 101.14C222.431 101.699 224.557 101.813 225.632 101.574C227.465 101.167 227.937 100.348 227.892 99.2821C227.855 98.422 227.218 96.8855 226.7 96.2143C225.275 94.3679 222.689 93.4597 221.302 93.476C219.647 93.4958 219.436 92.3816 220.04 92.07C221.55 91.2923 224.728 91.6056 227.123 94.3087C228.14 95.4572 229.124 97.7431 229.151 98.9894C229.176 100.089 228.895 101.022 228.338 101.664C227.807 102.276 226.874 102.851 225.734 102.976C223.843 103.183 222.473 102.957 221.533 102.677C220.008 102.222 219.747 101.638 219.602 100.956V100.957Z" fill="#E59704"/>
<path d="M219.436 93.6065C219.175 92.2039 220.101 92.0563 220.101 92.0563C220.043 92.2718 220.279 93.4829 222.672 94.313C224.093 94.8057 225.785 94.8641 226.918 94.5902C228.851 94.1233 229.184 93.3954 229.167 92.3044C229.153 91.4237 228.214 90.0511 227.564 89.4915C225.527 87.7386 223.638 88.4631 222.466 87.5996C221.846 87.1429 221.367 85.1841 221.849 84.6536C222 84.488 227.207 85.4107 229.638 88.1163C230.671 89.2657 231.328 91.2468 231.128 92.507C230.974 93.4812 230.359 94.5027 229.686 95.1096C229.1 95.6375 228.057 96.0255 227.115 96.1619C225.13 96.4504 223.484 96.1928 222.507 95.9302C220.922 95.5053 219.66 94.8083 219.436 93.6065Z" fill="#FFB01C"/>
<path d="M83.5876 47.0462C78.1897 48.8274 81.1688 51.0162 84.7949 51.2866C85.3466 51.3278 87.5071 51.1295 90.355 51.3733C92.1277 51.5252 96.2703 53.2729 96.4822 52.8729C97.0477 51.8059 92.2976 49.2797 91.8196 49.005C89.0319 47.405 85.3878 46.4522 83.5876 47.0462Z" fill="#F53A48"/>
<path d="M94.8232 27.9876C90.4077 26.1258 89.9307 30.446 93.3199 32.6829C93.8356 33.0237 97.3115 35.1353 99.9568 36.9233C101.603 38.0367 105.002 41.7663 105.411 41.4968C106.503 40.7766 103.325 35.5482 101.927 33.6864C99.4034 30.3267 96.7512 28.8005 94.8232 27.9867V27.9876Z" fill="#FECA27"/>
<path d="M118.026 46.5827C117.964 41.6659 118.971 34.8289 120.825 31.1662C122.678 27.5035 125.055 25.1524 127.163 26.1327C129.27 27.1129 127.217 31.3276 124.157 35.0521C121.097 38.7766 118.026 46.5819 118.026 46.5819V46.5827Z" fill="#0A92F4"/>
<path d="M118.023 54.0858C122.653 50.6093 129.851 46.8127 134.621 46.029C139.391 45.2453 143.277 45.8711 143.81 48.5561C144.343 51.242 138.911 52.2197 133.243 51.8986C127.576 51.5784 118.023 54.0849 118.023 54.0849V54.0858Z" fill="#FFCA26"/>
<path d="M156.365 77.6252L156.229 74.4629H108.271L108.135 77.6252C108.112 78.1737 108.1 78.7273 108.1 79.2707C108.1 84.6999 109.249 89.9206 111.403 94.4838C112.371 96.5362 113.543 98.4555 114.905 100.201C117.1 103.017 119.676 105.237 122.561 106.801C125.62 108.459 128.88 109.3 132.25 109.3C133.817 109.3 135.359 109.118 136.87 108.756C138.608 108.341 140.302 107.688 141.939 106.801C144.824 105.237 147.399 103.017 149.595 100.201C153.984 94.5756 156.401 87.1429 156.401 79.2707C156.401 78.7273 156.389 78.1737 156.365 77.6252ZM144.387 96.1353C143.378 97.4297 142.273 98.5465 141.096 99.4718C138.43 101.57 135.392 102.691 132.25 102.691C127.721 102.691 123.41 100.363 120.113 96.1353C116.955 92.0872 115.082 86.7935 114.757 81.0724H149.743C149.418 86.7935 147.544 92.0872 144.387 96.1353Z" fill="#FFB01C"/>
<path d="M114.671 77.6252L114.534 74.4629H66.5769L66.4405 77.6252C66.4173 78.1737 66.4053 78.7273 66.4053 79.2707C66.4053 87.142 68.8215 94.5756 73.2104 100.201C75.4061 103.017 77.9819 105.237 80.8666 106.801C82.5038 107.688 84.1975 108.341 85.9359 108.756C87.4461 109.118 88.9888 109.3 90.5556 109.3C93.926 109.3 97.1856 108.459 100.245 106.801C103.129 105.237 105.705 103.017 107.901 100.201C109.263 98.4555 110.435 96.5362 111.403 94.4838C113.557 89.9206 114.707 84.6999 114.707 79.2707C114.707 78.7273 114.695 78.1737 114.671 77.6252ZM102.693 96.1353C99.3951 100.363 95.0843 102.691 90.5556 102.691C87.4135 102.691 84.376 101.57 81.7092 99.471C80.5329 98.5456 79.4286 97.4297 78.4187 96.1353C75.2611 92.0872 73.3888 86.7935 73.0628 81.0724H108.048C107.723 86.7935 105.85 92.088 102.693 96.1353Z" fill="#FFB01C"/>
<g style="mix-blend-mode:multiply">
<path d="M146.182 81.0724H114.758C115.083 86.7935 116.956 92.0872 120.113 96.1353C123.411 100.363 127.722 102.691 132.25 102.691C135.393 102.691 138.43 101.57 141.097 99.4718C139.826 102.8 138.412 105.905 136.87 108.756C135.36 109.118 133.817 109.3 132.25 109.3C128.88 109.3 125.62 108.459 122.561 106.801C119.677 105.237 117.101 103.017 114.905 100.201C113.543 98.4555 112.371 96.5362 111.404 94.4838C110.435 96.5362 109.263 98.4555 107.901 100.201C105.705 103.017 103.129 105.237 100.245 106.801C97.1858 108.459 93.9262 109.3 90.5558 109.3C88.989 109.3 87.4463 109.118 85.9361 108.756C84.3951 105.905 82.9802 102.799 81.7094 99.471C84.3762 101.57 87.4137 102.691 90.5558 102.691C95.0845 102.691 99.3953 100.363 102.693 96.1353C105.85 92.088 107.723 86.7935 108.049 81.0724H76.6238C76.2214 78.9153 75.8713 76.711 75.5762 74.4629H147.23C146.935 76.711 146.585 78.9153 146.182 81.0724Z" fill="#FFB01C"/>
</g>
<path d="M133.554 163.706L119.915 145.015C118.185 142.644 117.252 139.784 117.252 136.848V119.302H105.554V136.847C105.554 139.783 104.621 142.642 102.891 145.014L89.251 163.707H133.553L133.554 163.706Z" fill="#FFB01C"/>
<path d="M133.553 163.706H89.251L102.891 145.013C104.621 142.642 105.554 139.782 105.554 136.847V119.302H117.252V136.848C117.252 139.784 118.184 142.643 119.915 145.014L133.553 163.706Z" fill="#FFB01C"/>
<g style="mix-blend-mode:multiply">
<path d="M133.553 163.706H89.251L89.8602 162.872H123.854L113.515 145.014C112.142 142.643 111.402 139.784 111.402 136.848V119.302H117.252V136.848C117.252 139.784 118.184 142.643 119.915 145.014L132.944 162.872L133.552 163.706H133.553Z" fill="#FFB01C"/>
</g>
<path d="M144.087 64.1254C143.221 97.8203 128.919 124.622 111.402 124.622C93.8852 124.622 79.5826 97.8203 78.7168 64.1254H144.087Z" fill="#FFB01C"/>
<path d="M101.209 108.657C100.304 109.095 99.3704 109.323 98.4171 109.323C90.687 109.323 84.2835 94.2795 83.156 74.6458C83.078 73.2929 83.0256 71.917 82.999 70.5238H88.5831C88.6097 71.9178 88.6621 73.2929 88.7401 74.6458C89.7286 91.8571 94.7722 105.542 101.209 108.656V108.657Z" fill="white"/>
<g style="mix-blend-mode:multiply">
<path d="M132.342 64.1254H78.7168C78.7726 66.2988 78.8841 68.4431 79.0497 70.553H132.009C129.912 97.4203 119.198 118.776 105.53 123.599C107.434 124.271 109.398 124.622 111.402 124.622C127.789 124.622 141.364 101.165 143.754 70.553C143.92 68.4431 144.031 66.2988 144.087 64.1254H132.342Z" fill="#FFB01C"/>
</g>
<path d="M145.427 60.9734H77.0381V68.5753H145.427V60.9734Z" fill="#FFB01C"/>
<path d="M135.357 163.706H87.4481C86.4245 163.706 85.5947 164.536 85.5947 165.56V165.931C85.5947 166.955 86.4245 167.785 87.4481 167.785H135.357C136.381 167.785 137.211 166.955 137.211 165.931V165.56C137.211 164.536 136.381 163.706 135.357 163.706Z" fill="#FFB01C"/>
<path d="M135.496 73.5359C134.47 71.0801 134.26 69.6792 132.25 68.5753C134.09 67.5762 134.653 66.5624 135.438 63.6147C136.964 66.5238 136.431 67.656 138.888 68.5753C136.442 69.4432 136.099 71.2475 135.496 73.5359Z" fill="white"/>
<path d="M128.264 83.7918C126.536 79.6578 126.182 77.299 122.799 75.4398C125.895 73.7582 126.844 72.0509 128.165 67.0877C130.735 71.9848 129.837 73.8912 133.973 75.4398C129.855 76.8999 129.278 79.9385 128.264 83.7918Z" fill="white"/>
<path d="M111.403 81.6003L113.71 88.7052H121.178L115.136 93.0958L117.444 100.2L111.403 95.8091L105.362 100.2L107.669 93.0958L101.629 88.7052H109.096L111.403 81.6003Z" fill="#AC7103"/>
<path d="M144.758 167.785H78.0479V186.93H144.758V167.785Z" fill="#0F4B72"/>
<path d="M122.695 173.061H100.111V181.653H122.695V173.061Z" fill="#AC7103"/>
<path d="M121.66 173.819H101.147V180.896H121.66V173.819Z" stroke="#FFB01C" stroke-width="3" stroke-miterlimit="10"/>
</svg>
